HIERARCHY
ROOT hip
{
  OFFSET 0 0 0
  CHANNELS 6 Xposition Yposition Zposition Zrotation Yrotation Xrotation
  JOINT abdomen
  {
    OFFSET 0 20.6881 -0.73152
    CHANNELS 3 Zrotation Xrotation Yrotation
    JOINT chest
    {
      OFFSET 0 11.7043 -0.48768
      CHANNELS 3 Zrotation Xrotation Yrotation
      JOINT neck
      {
        OFFSET 0 22.1894 -2.19456
        CHANNELS 3 Zrotation Xrotation Yrotation
        JOINT head
        {
          OFFSET -0.24384 7.07133 1.2192
          CHANNELS 3 Zrotation Xrotation Yrotation
          JOINT leftEye
          {
            OFFSET 4.14528 8.04674 8.04672
            CHANNELS 3 Zrotation Xrotation Yrotation
            End Site
            {
              OFFSET 1 0 0
            }
          }
          JOINT rightEye
          {
            OFFSET -3.6576 8.04674 8.04672
            CHANNELS 3 Zrotation Xrotation Yrotation
            End Site
            {
              OFFSET 1 0 0
            }
          }
        }
      }
      JOINT rCollar
      {
        OFFSET -2.68224 19.2634 -4.8768
        CHANNELS 3 Zrotation Xrotation Yrotation
        JOINT rShldr
        {
          OFFSET -8.77824 -1.95073 1.46304
          CHANNELS 3 Zrotation Xrotation Yrotation
          JOINT rForeArm
          {
            OFFSET -28.1742 -1.7115 0.48768
            CHANNELS 3 Zrotation Xrotation Yrotation
            JOINT rHand
            {
              OFFSET -22.5879 0.773209 7.07136
              CHANNELS 3 Zrotation Xrotation Yrotation
              JOINT rThumb1
              {
                OFFSET -1.2192 -0.487915 3.41376
                CHANNELS 3 Zrotation Xrotation Yrotation
                JOINT rThumb2
                {
                  OFFSET -3.37035 -0.52449 3.41376
                  CHANNELS 3 Zrotation Xrotation Yrotation
                  End Site
                  {
                    OFFSET -1.78271 -1.18214 1.43049
                  }
                }
              }
              JOINT rIndex1
              {
                OFFSET -7.75947 0.938293 5.60832
                CHANNELS 3 Zrotation Xrotation Yrotation
                JOINT rIndex2
                {
                  OFFSET -2.54057 -0.884171 1.56538
                  CHANNELS 3 Zrotation Xrotation Yrotation
                  End Site
                  {
                    OFFSET -1.62519 -0.234802 1.16502
                  }
                }
              }
              JOINT rMid1
              {
                OFFSET -8.24714 1.18213 3.41376
                CHANNELS 3 Zrotation Xrotation Yrotation
                JOINT rMid2
                {
                  OFFSET -3.10165 -0.590103 1.0647
                  CHANNELS 3 Zrotation Xrotation Yrotation
                  End Site
                  {
                    OFFSET -2.48547 -0.328903 0.83742
                  }
                }
              }
              JOINT rRing1
              {
                OFFSET -8.82822 0.546677 1.51678
                CHANNELS 3 Zrotation Xrotation Yrotation
                JOINT rRing2
                {
                  OFFSET -2.60934 -0.819778 -0.0198488
                  CHANNELS 3 Zrotation Xrotation Yrotation
                  End Site
                  {
                    OFFSET -2.33842 -0.294052 0.168128
                  }
                }
              }
              JOINT rPinky1
              {
                OFFSET -8.27202 -0.0477905 -0.4584
                CHANNELS 3 Zrotation Xrotation Yrotation
                JOINT rPinky2
                {
                  OFFSET -1.82734 -0.647385 -0.700984
                  CHANNELS 3 Zrotation Xrotation Yrotation
                  End Site
                  {
                    OFFSET -1.69225 -0.51767 -0.607171
                  }
                }
              }
            }
          }
        }
      }
      JOINT lCollar
      {
        OFFSET 2.68224 19.2634 -4.8768
        CHANNELS 3 Zrotation Xrotation Yrotation
        JOINT lShldr
        {
          OFFSET 8.77824 -1.95073 1.46304
          CHANNELS 3 Zrotation Xrotation Yrotation
          JOINT lForeArm
          {
            OFFSET 28.1742 -1.7115 0.48768
            CHANNELS 3 Zrotation Xrotation Yrotation
            JOINT lHand
            {
              OFFSET 22.5879 0.773209 7.07136
              CHANNELS 3 Zrotation Xrotation Yrotation
              JOINT lThumb1
              {
                OFFSET 1.2192 -0.487915 3.41376
                CHANNELS 3 Zrotation Xrotation Yrotation
                JOINT lThumb2
                {
                  OFFSET 3.37035 -0.52449 3.41376
                  CHANNELS 3 Zrotation Xrotation Yrotation
                  End Site
                  {
                    OFFSET 1.78271 -1.18214 1.43049
                  }
                }
              }
              JOINT lIndex1
              {
                OFFSET 7.75947 0.938293 5.60832
                CHANNELS 3 Zrotation Xrotation Yrotation
                JOINT lIndex2
                {
                  OFFSET 2.54057 -0.884171 1.56538
                  CHANNELS 3 Zrotation Xrotation Yrotation
                  End Site
                  {
                    OFFSET 1.62519 -0.234802 1.16502
                  }
                }
              }
              JOINT lMid1
              {
                OFFSET 8.24714 1.18213 3.41376
                CHANNELS 3 Zrotation Xrotation Yrotation
                JOINT lMid2
                {
                  OFFSET 3.10165 -0.590103 1.0647
                  CHANNELS 3 Zrotation Xrotation Yrotation
                  End Site
                  {
                    OFFSET 2.48547 -0.328903 0.83742
                  }
                }
              }
              JOINT lRing1
              {
                OFFSET 8.82822 0.546677 1.51678
                CHANNELS 3 Zrotation Xrotation Yrotation
                JOINT lRing2
                {
                  OFFSET 2.60934 -0.819778 -0.0198488
                  CHANNELS 3 Zrotation Xrotation Yrotation
                  End Site
                  {
                    OFFSET 2.33842 -0.294052 0.168128
                  }
                }
              }
              JOINT lPinky1
              {
                OFFSET 8.27202 -0.0477905 -0.4584
                CHANNELS 3 Zrotation Xrotation Yrotation
                JOINT lPinky2
                {
                  OFFSET 1.82734 -0.647385 -0.700984
                  CHANNELS 3 Zrotation Xrotation Yrotation
                  End Site
                  {
                    OFFSET 1.69225 -0.51767 -0.607171
                  }
                }
              }
            }
          }
        }
      }
    }
  }
  JOINT rButtock
  {
    OFFSET -8.77824 4.35084 1.2192
    CHANNELS 3 Zrotation Xrotation Yrotation
    JOINT rThigh
    {
      OFFSET 0 -1.70687 -2.19456
      CHANNELS 3 Zrotation Xrotation Yrotation
      JOINT rShin
      {
        OFFSET 0 -36.8199 0.73152
        CHANNELS 3 Zrotation Xrotation Yrotation
        JOINT rFoot
        {
          OFFSET 0.73152 -45.1104 -5.12064
          CHANNELS 3 Zrotation Xrotation Yrotation
          End Site
          {
            OFFSET -1.1221 -3.69964 12.103
          }
        }
      }
    }
  }
  JOINT lButtock
  {
    OFFSET 8.77824 4.35084 1.2192
    CHANNELS 3 Zrotation Xrotation Yrotation
    JOINT lThigh
    {
      OFFSET 0 -1.70687 -2.19456
      CHANNELS 3 Zrotation Xrotation Yrotation
      JOINT lShin
      {
        OFFSET 0 -36.8199 0.73152
        CHANNELS 3 Zrotation Xrotation Yrotation
        JOINT lFoot
        {
          OFFSET -0.73152 -45.1104 -5.12064
          CHANNELS 3 Zrotation Xrotation Yrotation
          End Site
          {
            OFFSET 1.1221 -3.69964 12.103
          }
        }
      }
    }
  }
}
MOTION
Frames:	8
Frame Time:	0.00833333
-169.178 85.4571 12.5364 0.0 0.0 0.0 1.92989 -0.0017223 0.0523847 0.532101 0.00507001 0.0921259 2.69795e-15 0.0 -4.96962e-17 8.24335e-15 3.18055e-15 -1.49089e-16 -0.0 0.0 0.0 -0.0 0.0 0.0 1.3899e-15 -5.39669e-17 1.98785e-16 3.3395e-14 -1.04362e-15 3.97569e-16 5.64101e-13 -2.10115e-13 -1.27222e-14 6.54703e-12 -3.05631e-14 -1.33583e-13 1.54249e-11 -5.25724e-13 -2.95792e-13 2.66268e-11 -9.09639e-13 -5.07298e-13 1.54269e-11 -5.24792e-13 -3.11694e-13 7.73091 5.47488 0.417314 1.54237e-11 -5.25885e-13 -2.8943e-13 2.90554 0.965183 0.102902 1.54334e-11 -5.26084e-13 -2.91816e-13 10.2786 0.731801 0.0259123 1.54191e-11 -5.21611e-13 -2.83069e-13 2.22167 -0.733487 -0.20892 1.19437e-15 -5.20257e-17 -1.98785e-16 3.10338e-14 -8.51047e-16 -9.93923e-16 5.72152e-13 1.30602e-13 -2.22639e-14 6.49306e-12 -3.6969e-13 -1.01778e-13 1.53367e-11 -5.2329e-13 -2.95792e-13 2.64992e-11 -9.03278e-13 -5.05708e-13 1.53279e-11 -5.22009e-13 -2.8943e-13 -7.73091 5.47488 -0.417314 1.53369e-11 -5.23301e-13 -2.95792e-13 -2.90554 0.965183 -0.102902 1.53306e-11 -5.234e-13 -2.96587e-13 -10.2786 0.731801 -0.0259123 1.5341e-11 -5.23996e-13 -3.11694e-13 -2.22167 -0.733487 0.20892 -2.03217e-16 0.0 -3.88251e-19 1.95945 -7.26117 -0.192015 0.00412066 7.5853 0.107063 -0.521263 -0.330676 0.0523252 2.03217e-16 0.0 3.88251e-19 0.978888 -1.92613 0.000832992 0.00897168 -2.0786 0.073926 0.485656 3.9981 -0.136409
-161.754 85.9203 4.31803 13.3909 85.9281 10.0686 0.834737 1.61666 1.1883 0.913974 -1.52774 0.459299 1.33966 -0.970781 0.6895 -1.04231 2.42037 1.19625 -0.0 0.0 0.0 -0.0 0.0 0.0 6.45959e-15 -8.08889e-13 -6.55753e-14 22.2545 8.1593 -1.42518 -4.57776 -2.15655 7.06512 0.00117231 0.7595 0.106707 -8.6565e-11 -4.68693e-11 2.19944e-10 -1.49024e-10 -8.16326e-11 3.81064e-10 -8.65615e-11 -4.68688e-11 2.19928e-10 7.73091 5.47488 0.417314 -8.65643e-11 -4.6869e-11 2.19944e-10 2.90554 0.965183 0.102902 -8.65549e-11 -4.68694e-11 2.19944e-10 10.2786 0.731801 0.0259123 -8.657e-11 -4.68659e-11 2.19951e-10 2.22167 -0.733487 -0.20892 6.28478e-15 -8.08888e-13 -6.59049e-14 -22.2188 9.80197 0.37055 3.63057 -1.54761 -5.77648 -0.0239922 3.43698 -0.479901 3.44257e-10 -7.07891e-11 -1.80011e-10 5.92654e-10 -1.22383e-10 -3.14743e-10 3.4425e-10 -7.07865e-11 -1.80004e-10 -7.73091 5.47488 -0.417314 3.4426e-10 -7.07872e-11 -1.80014e-10 -2.90554 0.965183 -0.102902 3.44251e-10 -7.07873e-11 -1.80012e-10 -10.2786 0.731801 -0.0259123 3.44262e-10 -7.0788e-11 -1.80026e-10 -2.22167 -0.733487 0.20892 -2.03217e-16 0.0 -3.88251e-19 0.0568192 -4.22701 -0.512343 0.00135169 8.23823 0.111733 -0.467403 -4.31915 -0.00602305 2.03217e-16 0.0 3.88251e-19 2.13758 2.12655 0.323595 0.00446992 -2.16286 0.0377034 0.762121 0.134329 4.24429
-161.758 85.9161 4.31776 13.3042 85.9376 9.9997 -0.394198 3.32557 2.39152 1.34002 -3.14623 0.848215 2.78062 -1.99848 1.4193 -2.25444 4.97641 2.46846 -0.0 0.0 0.0 -0.0 0.0 0.0 1.27142e-14 -1.70777e-12 -1.40693e-13 46.2383 16.7672 -3.02836 -8.84327 -4.32685 14.5655 -0.000665254 1.5621 0.219533 -2.0155e-10 -1.00116e-10 4.77427e-10 -3.47017e-10 -1.74352e-10 8.27128e-10 -2.01545e-10 -1.00116e-10 4.77412e-10 7.73091 5.47488 0.417314 -2.01548e-10 -1.00115e-10 4.7742e-10 2.90554 0.965183 0.102902 -2.01539e-10 -1.00116e-10 4.77423e-10 10.2786 0.731801 0.0259123 -2.01554e-10 -1.00113e-10 4.77427e-10 2.22167 -0.733487 -0.20892 1.25571e-14 -1.70777e-12 -1.40951e-13 -45.8527 20.1604 0.796777 7.13021 -3.13059 -11.895 0.013684 7.06977 -0.993029 7.21373e-10 -1.51788e-10 -3.83183e-10 1.24182e-09 -2.6243e-10 -6.70059e-10 7.21369e-10 -1.51783e-10 -3.83175e-10 -7.73091 5.47488 -0.417314 7.2138e-10 -1.51784e-10 -3.83189e-10 -2.90554 0.965183 -0.102902 7.21368e-10 -1.51784e-10 -3.83185e-10 -10.2786 0.731801 -0.0259123 7.21379e-10 -1.51784e-10 -3.83197e-10 -2.22167 -0.733487 0.20892 -2.03217e-16 0.0 -3.88251e-19 -1.91906 -1.01877 -0.850835 -0.00168746 8.92802 0.116694 -0.419519 -8.53404 -0.0693141 2.03217e-16 0.0 3.88251e-19 3.31118 6.41178 0.666882 -0.00040993 -2.25324 -0.000549277 1.69509 -3.90226 8.89599
-161.763 85.9118 4.31299 13.7034 85.907 10.4259 -1.54854 4.84559 3.47113 1.73682 -4.59251 1.197 4.08915 -2.91066 2.07088 -3.432 7.2484 3.61446 -0.0 0.0 0.0 -0.0 0.0 0.0 1.6599e-14 -2.42656e-12 -1.97123e-13 68.0817 24.4142 -4.64873 -12.1707 -6.07702 21.3058 -0.00497564 2.27847 0.320346 -2.90545e-10 -1.39556e-10 6.60423e-10 -5.00325e-10 -2.43079e-10 1.14421e-09 -2.90538e-10 -1.39557e-10 6.60408e-10 7.73091 5.47488 0.417314 -2.9054e-10 -1.39555e-10 6.6041e-10 2.90554 0.965183 0.102902 -2.90532e-10 -1.39556e-10 6.60416e-10 10.2786 0.731801 0.0259123 -2.90548e-10 -1.39554e-10 6.60418e-10 2.22167 -0.733487 -0.20892 1.64656e-14 -2.42656e-12 -1.97317e-13 -67.0844 29.4006 1.25738 9.96902 -4.4544 -17.3773 0.103142 10.308 -1.46069 1.0021e-09 -2.11321e-10 -5.39442e-10 1.72496e-09 -3.65342e-10 -9.43218e-10 1.00209e-09 -2.11315e-10 -5.39433e-10 -7.73091 5.47488 -0.417314 1.00211e-09 -2.11315e-10 -5.3945e-10 -2.90554 0.965183 -0.102902 1.00209e-09 -2.11315e-10 -5.39444e-10 -10.2786 0.731801 -0.0259123 1.0021e-09 -2.11316e-10 -5.39456e-10 -2.22167 -0.733487 0.20892 -2.03217e-16 0.0 -3.88251e-19 -3.64666 1.8405 -1.15249 -0.00451081 9.54409 0.121165 -0.384455 -12.2961 -0.125547 2.03217e-16 0.0 3.88251e-19 4.31625 10.2305 0.9841 -0.00485346 -2.33137 -0.0347538 3.08203 -7.39628 13.116
-161.77 85.9071 4.32079 13.2197 85.9056 9.9726 -2.38017 5.90078 4.23127 2.01887 -5.60904 1.44233 5.01679 -3.53567 2.52461 -4.3068 8.82237 4.42036 -0.0 0.0 0.0 -0.0 0.0 0.0 1.45592e-14 -2.69509e-12 -2.06835e-13 83.6159 29.7186 -5.96147 -14.2411 -7.15073 26.0406 -0.00948292 2.77926 0.39091 -3.14562e-10 -1.4448e-10 6.57198e-10 -5.41917e-10 -2.5182e-10 1.13883e-09 -3.14554e-10 -1.44481e-10 6.57185e-10 7.73091 5.47488 0.417314 -3.14556e-10 -1.44479e-10 6.57182e-10 2.90554 0.965183 0.102902 -3.14548e-10 -1.4448e-10 6.5719e-10 10.2786 0.731801 0.0259123 -3.14565e-10 -1.44479e-10 6.57192e-10 2.22167 -0.733487 -0.20892 1.44643e-14 -2.69509e-12 -2.06985e-13 -82.0013 35.8501 1.67117 11.8 -5.30931 -21.2234 0.197563 12.5627 -1.79471 1.04184e-09 -2.17191e-10 -5.78419e-10 1.79307e-09 -3.75417e-10 -1.01098e-09 1.04184e-09 -2.17185e-10 -5.78409e-10 -7.73091 5.47488 -0.417314 1.04185e-09 -2.17184e-10 -5.78428e-10 -2.90554 0.965183 -0.102902 1.04183e-09 -2.17184e-10 -5.78421e-10 -10.2786 0.731801 -0.0259123 1.04184e-09 -2.17185e-10 -5.78432e-10 -2.22167 -0.733487 0.20892 -2.03217e-16 0.0 -3.88251e-19 -4.82568 3.8282 -1.35975 -0.00656608 9.97589 0.124346 -0.363219 -14.926 -0.161173 2.03217e-16 0.0 3.88251e-19 4.99748 12.8845 1.22095 -0.00797306 -2.37889 -0.0588289 4.35857 -9.73954 16.1204
-161.763 85.9126 4.3332 12.5389 85.9 9.2595 -2.69165 6.30929 4.5392 2.11962 -6.02656 1.54135 5.38738 -3.75218 2.69809 -4.6608 9.4231 4.73085 -0.0 0.0 0.0 -0.0 0.0 0.0 1.00232e-15 -2.29199e-12 -1.37861e-13 89.8002 31.7924 -6.56367 -15.0017 -7.53387 27.9076 -0.0116019 2.97765 0.418888 -2.21305e-10 -1.01503e-10 3.42022e-10 -3.81828e-10 -1.77307e-10 5.93296e-10 -2.21299e-10 -1.01503e-10 3.42013e-10 7.73091 5.47488 0.417314 -2.213e-10 -1.01502e-10 3.42009e-10 2.90554 0.965183 0.102902 -2.21293e-10 -1.01503e-10 3.42018e-10 10.2786 0.731801 0.0259123 -2.2131e-10 -1.01502e-10 3.42021e-10 2.22167 -0.733487 -0.20892 9.82496e-16 -2.29199e-12 -1.37992e-13 -87.8944 38.4022 1.90665 12.4948 -5.63244 -22.7548 0.241735 13.4406 -1.92709 6.72881e-10 -1.29412e-10 -4.16122e-10 1.15724e-09 -2.23462e-10 -7.26314e-10 6.72881e-10 -1.29407e-10 -4.16113e-10 -7.73091 5.47488 -0.417314 6.7289e-10 -1.29406e-10 -4.16131e-10 -2.90554 0.965183 -0.102902 6.72876e-10 -1.29406e-10 -4.16125e-10 -10.2786 0.731801 -0.0259123 6.72888e-10 -1.29407e-10 -4.16134e-10 -2.22167 -0.733487 0.20892 -2.03217e-16 0.0 -3.88251e-19 -5.26195 4.59259 -1.4282 -0.00737552 10.1529 0.125726 -0.352392 -15.9752 -0.163049 2.03217e-16 0.0 3.88251e-19 5.27921 13.9042 1.34738 -0.00909568 -2.37715 -0.0688727 4.92624 -10.6293 17.3021
-161.759 85.9165 4.33507 12.6235 85.8737 9.328 -2.6177 6.25745 4.52192 2.08653 -6.01628 1.53519 5.35519 -3.67757 2.67104 -4.62014 9.33133 4.68259 -0.0 0.0 0.0 -0.0 0.0 0.0 -2.06276e-14 -1.41112e-12 -1.33155e-14 89.1597 31.5745 -6.5633 -14.9242 -7.49708 27.7118 -0.0113914 2.96008 0.416408 -4.55348e-11 -2.42904e-11 -1.93536e-10 -7.98386e-11 -4.32899e-11 -3.33834e-10 -4.55304e-11 -2.42905e-11 -1.9354e-10 7.73091 5.47488 0.417314 -4.5531e-11 -2.42906e-11 -1.93543e-10 2.90554 0.965183 0.102902 -4.55252e-11 -2.42913e-11 -1.93533e-10 10.2786 0.731801 0.0259123 -4.55418e-11 -2.42907e-11 -1.93528e-10 2.22167 -0.733487 -0.20892 -2.0547e-14 -1.41112e-12 -1.34459e-14 -87.2803 38.1717 1.96933 12.439 -5.61143 -22.6252 0.236356 13.3358 -1.91122 1.53975e-11 2.43775e-11 -1.11825e-10 2.44442e-11 4.27021e-11 -1.92993e-10 1.53971e-11 2.438e-11 -1.11817e-10 -7.73091 5.47488 -0.417314 1.54035e-11 2.43816e-11 -1.11831e-10 -2.90554 0.965183 -0.102902 1.53914e-11 2.43809e-11 -1.11827e-10 -10.2786 0.731801 -0.0259123 1.54039e-11 2.43803e-11 -1.11834e-10 -2.22167 -0.733487 0.20892 -2.03217e-16 0.0 -3.88251e-19 -5.17522 4.48355 -1.39641 -0.00727365 10.1477 0.12581 -0.347356 -15.8952 -0.140367 2.03217e-16 0.0 3.88251e-19 5.28683 13.7571 1.39052 -0.00877359 -2.34055 -0.0688859 4.85953 -10.5284 17.149
-161.766 85.9097 4.34026 12.276 85.8716 9.0114 -2.40167 6.02314 4.37083 2.0031 -5.8315 1.48584 5.16493 -3.49868 2.56649 -4.42141 8.9698 4.49424 -0.0 0.0 0.0 -0.0 0.0 0.0 -4.03304e-14 -4.05186e-13 1.1221e-13 85.7837 30.4374 -6.31334 -14.5113 -7.29208 26.69 -0.0102519 2.85712 0.401886 1.21154e-10 6.72918e-11 -7.35258e-10 2.06465e-10 1.15683e-10 -1.27167e-09 1.21156e-10 6.72921e-11 -7.35258e-10 7.73091 5.47488 0.417314 1.21156e-10 6.72906e-11 -7.35259e-10 2.90554 0.965183 0.102902 1.21161e-10 6.72901e-11 -7.35249e-10 10.2786 0.731801 0.0259123 1.21145e-10 6.72907e-11 -7.35241e-10 2.22167 -0.733487 -0.20892 -4.01645e-14 -4.05185e-13 1.12071e-13 -84.053 36.8195 1.95024 12.0806 -5.45103 -21.8253 0.211329 12.8406 -1.8365 -6.43389e-10 1.74938e-10 1.89947e-10 -1.11053e-09 3.03258e-10 3.35967e-10 -6.4339e-10 1.74939e-10 1.89954e-10 -7.73091 5.47488 -0.417314 -6.43387e-10 1.7494e-10 1.89945e-10 -2.90554 0.965183 -0.102902 -6.43397e-10 1.7494e-10 1.89946e-10 -10.2786 0.731801 -0.0259123 -6.43384e-10 1.74939e-10 1.8994e-10 -2.22167 -0.733487 0.20892 -2.03217e-16 0.0 -3.88251e-19 -4.88989 4.03115 -1.32939 -0.00691513 10.0646 0.125317 -0.346079 -15.3566 -0.112272 2.03217e-16 0.0 3.88251e-19 5.17201 13.1505 1.37785 -0.00794533 -2.30022 -0.0646408 4.54247 -10.0312 16.4765
